<svg width="303" height="40" viewBox="0 0 303 40" fill="none" xmlns="http://www.w3.org/2000/svg">
<path d="M22.0353 24.8033V39.4573H13.7856V24.8033L0 0.488467H8.90095L18.1818 17.2592L27.6255 0.488467H35.9294L22.0353 24.8033Z" fill="black"/>
<path d="M56.9895 39.4573L54.0587 31.0991H38.9162L35.9311 39.4573H27.6272L42.2812 0.488467H51.2907L65.8362 39.4573H56.9895ZM46.5689 9.49797L41.25 24.5319H51.7792L46.5689 9.49797Z" fill="black"/>
<path d="M95.0865 27.3541C95.0865 34.7897 89.1163 40 79.347 40C69.5234 40 63.3904 34.7354 62.7934 26.4858H71.1516C71.3687 30.7734 74.1367 33.5414 79.1842 33.5414C83.3633 33.5414 86.3484 31.6961 86.3484 28.5482C86.3484 26.1058 84.4488 24.6404 81.1381 23.9891L74.7337 22.7408C68.8178 21.6011 64.2588 18.3989 64.2588 11.9403C64.2588 4.99322 70.3918 0 78.8043 0C87.5424 0 93.9467 5.10177 94.4895 13.2429H86.1313C85.8599 9.17232 83.0376 6.40434 78.9128 6.40434C74.8965 6.40434 72.617 8.68385 72.617 11.3976C72.617 14.057 75.0594 15.1967 77.8816 15.7395L84.5573 17.0963C91.3959 18.4532 95.0865 21.6011 95.0865 27.3541Z" fill="black"/>
<path d="M105.078 39.4573H96.8279V0.488467H105.078V15.848H121.957V0.488467H130.206V39.4573H121.957V22.9579H105.078V39.4573Z" fill="black"/>
<path d="M160.095 32.2931V39.4573H133.881V0.488467H159.715V7.65265H142.13V15.848H158.087V22.9579H142.13V32.2931H160.095Z" fill="black"/>
<path d="M187.535 39.4573L169.679 12.2659V39.4573H162.135V0.488467H171.036L188.024 26.3229V0.488467H195.622V39.4573H187.535Z" fill="black"/>
<path d="M229.199 27.3541C229.199 34.7897 223.228 40 213.459 40C203.636 40 197.503 34.7354 196.906 26.4858H205.264C205.481 30.7734 208.249 33.5414 213.296 33.5414C217.475 33.5414 220.46 31.6961 220.46 28.5482C220.46 26.1058 218.561 24.6404 215.25 23.9891L208.846 22.7408C202.93 21.6011 198.371 18.3989 198.371 11.9403C198.371 4.99322 204.504 0 212.916 0C221.655 0 228.059 5.10177 228.602 13.2429H220.243C219.972 9.17232 217.15 6.40434 213.025 6.40434C209.009 6.40434 206.729 8.68385 206.729 11.3976C206.729 14.057 209.171 15.1967 211.994 15.7395L218.669 17.0963C225.508 18.4532 229.199 21.6011 229.199 27.3541Z" fill="black"/>
<path d="M239.19 39.4573H230.94V0.488467H239.19V15.848H256.069V0.488467H264.319V39.4573H256.069V22.9579H239.19V39.4573Z" fill="black"/>
<path d="M294.044 39.4573L291.113 31.0991H275.971L272.986 39.4573H264.682L279.336 0.488467H288.345L302.891 39.4573H294.044ZM283.624 9.49797L278.305 24.5319H288.834L283.624 9.49797Z" fill="black"/>
</svg>
